<svg width="40" height="40" viewBox="0 0 40 40" fill="none" xmlns="http://www.w3.org/2000/svg">
<path d="M0 20C0 8.95431 8.95431 0 20 0C31.0457 0 40 8.95431 40 20C40 31.0457 31.0457 40 20 40C8.95431 40 0 31.0457 0 20Z" fill="url(#paint0_linear_97_1567)"/>
<path d="M20 9C21.2049 9 22.1816 9.97672 22.1816 11.1816C22.1816 11.9888 21.7424 12.692 21.0908 13.0693V14H26.2725C27.9293 14 29.2725 15.3431 29.2725 17V19.4541H29.9092C30.4613 19.4541 30.9089 19.9021 30.9092 20.4541V24.4541C30.9092 25.0064 30.4614 25.4541 29.9092 25.4541H29.2725V27.3633C29.2725 29.0201 27.9293 30.3633 26.2725 30.3633H13.7275C12.0707 30.3633 10.7275 29.0201 10.7275 27.3633V25.4541H10.0908C9.53858 25.4541 9.09082 25.0064 9.09082 24.4541V20.4541C9.09106 19.9021 9.53872 19.4541 10.0908 19.4541H10.7275V17C10.7275 15.3431 12.0707 14 13.7275 14H18.9092V13.0693C18.2576 12.692 17.8184 11.9888 17.8184 11.1816C17.8184 9.97672 18.7951 9 20 9Z" fill="white"/>
<rect x="12.3635" y="15.6365" width="15.2727" height="13.0909" rx="2.18182" fill="#4174C1"/>
<circle cx="16.7272" cy="20.5455" r="1.13636" fill="white" stroke="white"/>
<circle cx="23.2728" cy="20.5455" r="1.13636" fill="white" stroke="white"/>
<path d="M18.0908 24.2136C18.0908 24.2136 18.887 24.7591 19.9999 24.7591C21.1128 24.7591 21.909 24.2136 21.909 24.2136" stroke="white" stroke-width="1.5" stroke-linecap="round" stroke-linejoin="round"/>
<defs>
<linearGradient id="paint0_linear_97_1567" x1="37.5" y1="10" x2="20" y2="40" gradientUnits="userSpaceOnUse">
<stop stop-color="#0D48A1"/>
<stop offset="1" stop-color="#8FB6F1"/>
</linearGradient>
</defs>
</svg>
