<svg width="32" height="32" viewBox="0 0 32 32" fill="none" xmlns="http://www.w3.org/2000/svg">
<path d="M0 8C0 3.58172 3.58172 0 8 0H24C28.4183 0 32 3.58172 32 8V24C32 28.4183 28.4183 32 24 32H8C3.58172 32 0 28.4183 0 24V8Z" fill="white" fill-opacity="0.08"/>
<path d="M16.001 5C17.2059 5 18.1825 5.97672 18.1826 7.18164C18.1826 7.98882 17.7434 8.69195 17.0918 9.06934V10H22.2734C23.9303 10 25.2734 11.3431 25.2734 13V15.4541H25.9102C26.4623 15.4541 26.9099 15.902 26.9102 16.4541V20.4541C26.9102 21.0064 26.4624 21.4541 25.9102 21.4541H25.2734V23.3633C25.2734 25.0201 23.9303 26.3633 22.2734 26.3633H9.72852C8.07166 26.3633 6.72852 25.0201 6.72852 23.3633V21.4541H6.0918C5.53955 21.4541 5.0918 21.0064 5.0918 20.4541V16.4541C5.09204 15.9021 5.5397 15.4541 6.0918 15.4541H6.72852V13C6.72852 11.3431 8.07166 10 9.72852 10H14.9102V9.06934C14.2585 8.69195 13.8193 7.98882 13.8193 7.18164C13.8194 5.97672 14.796 5 16.001 5Z" fill="white" fill-opacity="0.8"/>
<rect x="8.75" y="11.75" width="14.5" height="12.5" rx="1.25" stroke="#002B6C" stroke-width="1.5"/>
<circle cx="12.7282" cy="16.5455" r="1.13636" fill="#002B6C" stroke="#002B6C"/>
<circle cx="19.2731" cy="16.5455" r="1.13636" fill="#002B6C" stroke="#002B6C"/>
<path d="M14.0918 20.2139C14.0918 20.2139 14.888 20.7593 16.0009 20.7593C17.1138 20.7593 17.91 20.2139 17.91 20.2139" stroke="#002B6C" stroke-width="1.5" stroke-linecap="round" stroke-linejoin="round"/>
</svg>
