<svg width="32" height="32" viewBox="0 0 32 32" fill="none" xmlns="http://www.w3.org/2000/svg">
<rect width="32" height="32" rx="8" fill="white" fill-opacity="0.08"/>
<path d="M23 7C24.1046 7 25 7.89543 25 9V23C25 24.1046 24.1046 25 23 25H9C7.89543 25 7 24.1046 7 23V9C7 7.89543 7.89543 7 9 7H23ZM10.5 17C9.94772 17 9.5 17.4477 9.5 18V20C9.5 20.5523 9.94772 21 10.5 21H21.5C22.0523 21 22.5 20.5523 22.5 20V18C22.5 17.4477 22.0523 17 21.5 17H10.5ZM10.5 11C9.94772 11 9.5 11.4477 9.5 12V14C9.5 14.5523 9.94772 15 10.5 15H16.5C17.0523 15 17.5 14.5523 17.5 14V12C17.5 11.4477 17.0523 11 16.5 11H10.5ZM20 11C19.4477 11 19 11.4477 19 12V14C19 14.5523 19.4477 15 20 15H21.5C22.0523 15 22.5 14.5523 22.5 14V12C22.5 11.4477 22.0523 11 21.5 11H20Z" fill="white" fill-opacity="0.8"/>
</svg>
