<svg width="24" height="24" viewBox="0 0 24 24" fill="none" xmlns="http://www.w3.org/2000/svg">
<path d="M19 3C20.1046 3 21 3.89543 21 5V19C21 20.1046 20.1046 21 19 21H5C3.89543 21 3 20.1046 3 19V5C3 3.89543 3.89543 3 5 3H19ZM6.5 13C5.94772 13 5.5 13.4477 5.5 14V16C5.5 16.5523 5.94772 17 6.5 17H17.5C18.0523 17 18.5 16.5523 18.5 16V14C18.5 13.4477 18.0523 13 17.5 13H6.5ZM6.5 7C5.94772 7 5.5 7.44772 5.5 8V10C5.5 10.5523 5.94772 11 6.5 11H12.5C13.0523 11 13.5 10.5523 13.5 10V8C13.5 7.44772 13.0523 7 12.5 7H6.5ZM16 7C15.4477 7 15 7.44772 15 8V10C15 10.5523 15.4477 11 16 11H17.5C18.0523 11 18.5 10.5523 18.5 10V8C18.5 7.44772 18.0523 7 17.5 7H16Z" fill="#002B6C"/>
</svg>
